<svg width="24" height="24" viewBox="0 0 24 24" fill="none"
     xmlns="http://www.w3.org/2000/svg">
  <path
    d="M19.14 12.94c.04-.3.06-.62.06-.94s-.02-.64-.06-.94l2.03-1.58c.18-.14.23-.4.12-.61l-1.93-3.34a.5.5 0 00-.61-.22l-2.39.96a7.007 7.007 0 00-1.63-.94l-.36-2.54a.5.5 0 00-.49-.42h-3.86a.5.5 0 00-.49.42l-.36 2.54a7.007 7.007 0 00-1.63.94l-2.39-.96a.5.5 0 00-.61.22l-1.93 3.34a.5.5 0 00.12.61l2.03 1.58c-.04.3-.06.62-.06.94s.02.64.06.94l-2.03 1.58a.5.5 0 00-.12.61l1.93 3.34c.12.21.39.27.61.22l2.39-.96c.5.37 1.04.69 1.63.94l.36 2.54c.04.24.25.42.49.42h3.86c.24 0 .45-.18.49-.42l.36-2.54c.59-.25 1.13-.57 1.63-.94l2.39.96c.22.09.48 0 .61-.22l1.93-3.34a.5.5 0 00-.12-.61l-2.03-1.58zM12 15.5c-1.93 0-3.5-1.57-3.5-3.5s1.57-3.5 3.5-3.5 3.5 1.57 3.5 3.5-1.57 3.5-3.5 3.5z"
    fill="currentColor"/>
</svg>
